# xmcd
#
# Track frame offsets: 
#        150
#        18304
#        38458
#        63522
#
# Disc length: 1352 seconds
#
# Revision: 1
# Processed by: cddbd v1.5.2PL0 Copyright (c) Steve Scherf et al.
# Submitted via: ExactAudioCopyFreeDBPlugin 1.0
#
DISCID=26054604
DTITLE=Antony and the Johnsons - You Are My Sister [CD2]
DYEAR=2005
DGENRE=Indie
TTITLE0=You Are My Sister
TTITLE1=Forest Of Love
TTITLE2=Paddy's Gone
TTITLE3=You Are My Sister [Video]
EXTD=
EXTT0=
EXTT1=
EXTT2=
EXTT3=
PLAYORDER=
